<svg xmlns="http://www.w3.org/2000/svg" width="256" height="256" viewBox="0 0 256 256">
  <path fill="#001528" d="M91.459598,68.8758867 C98.6646011,65.1629054 106.823685,63.0544185 115.478089,63.0542623 C115.478089,63.0542623 126.556822,62.9165824 134.512116,67.8171114 C142.467254,72.7176401 151.116991,80.3236334 151.116991,80.3236334 C163.775177,93.163494 184.460061,93.1016085 197.179851,80.3236334 C209.899952,67.5455022 209.899952,46.8280394 197.179851,34.0499082 L197.133493,33.977552 C176.236107,12.9844166 147.366936,0.00031262967 115.478867,7.10542736e-15 C51.7367981,-0.000312373626 0.403855142,51.2269194 0.00234116376,115.259475 C-0.401350492,179.670845 51.4536693,232.012799 115.478089,232.012799 C121.852218,232.012799 128.102984,231.485522 134.196474,230.48785 C110.537494,232.138915 86.4180404,225.593572 66.4129761,210.850104 C99.8260508,228.165889 141.887774,222.761211 169.89558,194.625131 C189.692964,174.737498 198.181069,147.795529 195.372651,121.853575 C195.382607,140.670556 188.242319,159.490818 173.950854,173.847658 C145.387836,202.541334 99.0779378,202.54149 70.51492,173.847814 C65.2821727,168.590818 61.0120631,162.734187 57.6966574,156.499836 C83.6684257,179.494877 122.601577,179.623493 148.795336,157.021175 C145.928425,159.368766 142.816343,161.425994 139.496581,163.136913 C132.291578,166.849738 124.132494,168.958537 115.477934,168.958537 C106.823686,168.958537 98.6646011,166.849738 91.4595983,163.136913 C74.428785,154.360093 62.7671498,136.557193 62.7671498,116.006478 C62.7671498,95.4557624 74.4289404,77.652706 91.459598,68.8758867 Z" transform="translate(24 12)"/>
</svg>
